#!OML:ASF F:\Work\Patient Classification 1\justin\Session 1\justin.ASF
:FULLY-SPECIFIED
:DEGREES
292
root 0.640064 16.7628 -1.43033 -1.80357 28.5895 0.259559
lowerback 15.8082 -2.14101 -4.54601
upperback 1.501 -3.42823 2.23717
thorax -6.84279 -1.49933 5.70247
lowerneck -8.60208 -9.45824 -16.8538
upperneck 10.9699 -12.9484 17.4078
head 7.04729 -5.92161 7.15264
rclavicle -1.42131e-014 -4.37326e-015
rhumerus 6.43058 -7.11589 -64.8718
rradius 138.084
rwrist -5.70334
rhand -17.6109 26.8032
rfingers 7.12502
rthumb 8.64587 -2.99977
lclavicle -1.42131e-014 -4.37326e-015
lhumerus 16.8321 -28.9796 94.625
lradius 123.55
lwrist 8.07937
lhand -15.5441 9.03729
lfingers 7.12502
lthumb 10.64 38.7479
rfemur -31.1374 4.83437 2.44987
rtibia 39.3299
rfoot -4.83456 5.68248
rtoes -22.0593
lfemur -2.63281 12.6907 -16.1115
ltibia 44.6191
lfoot -33.2747 5.96555
ltoes -19.552
293
root 0.651702 16.7306 -1.42799 -1.7258 28.3996 0.434466
lowerback 15.6881 -2.20911 -4.80935
upperback 1.76835 -3.5431 2.37642
thorax -6.44842 -1.56814 6.00531
lowerneck -8.92449 -9.39527 -16.7654
upperneck 10.8186 -12.8032 17.3934
head 7.02323 -5.83521 7.14013
rclavicle -2.21645e-014 -1.19271e-014
rhumerus 6.50293 -7.10549 -64.8441
rradius 138.223
rwrist -5.38896
rhand -17.3929 25.7057
rfingers 7.12502
rthumb 8.85617 -4.08844
lclavicle -2.21645e-014 -1.19271e-014
lhumerus 17.1255 -28.8357 94.5951
lradius 123.634
lwrist 8.19629
lhand -15.6859 8.97506
lfingers 7.12502
lthumb 10.5031 38.6927
rfemur -31.6181 4.61152 2.30393
rtibia 40.0777
rfoot -4.93961 5.80505
rtoes -21.7778
lfemur -2.7599 12.7685 -16.3224
ltibia 45.0745
lfoot -33.5687 6.15471
ltoes -19.5692
294
root 0.660365 16.6989 -1.41502 -1.70739 28.0955 0.464298
lowerback 15.9477 -2.17106 -4.88667
upperback 1.68991 -3.5091 2.49684
thorax -6.66784 -1.53682 6.19479
lowerneck -9.14275 -9.41608 -16.6117
upperneck 11.0158 -12.8046 17.1279
head 7.09342 -5.83212 7.01669
rclavicle 1.73937e-015 -1.35174e-014
rhumerus 5.81257 -7.07395 -64.6921
rradius 138.375
rwrist -5.04681
rhand -17.3852 25.507
rfingers 7.12502
rthumb 8.86361 -4.28688
lclavicle 1.73937e-015 -1.35174e-014
lhumerus 16.6163 -28.9227 95.0014
lradius 123.754
lwrist 8.30437
lhand -15.7982 8.79768
lfingers 7.12502
lthumb 10.3948 38.5207
rfemur -32.1545 4.44664 2.36208
rtibia 40.8755
rfoot -5.57704 6.20015
rtoes -24.6708
lfemur -2.85857 12.9882 -16.3198
ltibia 45.5592
lfoot -33.9506 6.14975
ltoes -19.5225
295
root 0.665474 16.6627 -1.40673 -1.59135 27.7396 0.645221
lowerback 16.0204 -2.06238 -5.15374
upperback 1.76367 -3.40708 2.5859
thorax -6.62084 -1.48238 6.4257
lowerneck -9.41588 -9.38549 -16.407
upperneck 11.069 -12.734 16.9764
head 7.12051 -5.7848 6.93141
rclavicle -2.48481e-015 3.02153e-014
rhumerus 5.17102 -7.17293 -64.5765
rradius 138.39
rwrist -4.72688
rhand -17.6468 26.1636
rfingers 7.12502
rthumb 8.61119 -3.64076
lclavicle -2.48481e-015 3.02153e-014
lhumerus 16.4382 -29.0357 95.3124
lradius 123.969
lwrist 8.37362
lhand -15.3959 9.42469
lfingers 7.12502
lthumb 10.7829 39.1279
rfemur -32.7999 4.26417 2.27125
rtibia 41.6827
rfoot -4.69326 6.42269
rtoes -19.7816
lfemur -3.04647 13.2537 -16.4892
ltibia 46.0667
lfoot -34.2908 6.23341
ltoes -19.5921
296
root 0.668737 16.6186 -1.39883 -1.48202 27.5189 0.891552
lowerback 16.1998 -2.01722 -5.46438
upperback 1.78695 -3.40623 2.63117
thorax -6.67308 -1.47111 6.66408
lowerneck -9.37489 -9.22509 -16.2556
upperneck 10.9684 -12.534 17.0302
head 7.03953 -5.68249 6.9546
rclavicle -4.46272e-014 2.22639e-014
rhumerus 4.29999 -7.07443 -64.5725
rradius 138.506
rwrist -4.58845
rhand -17.7217 26.5354
rfingers 7.12502
rthumb 8.53894 -3.27199
lclavicle -4.46272e-014 2.22639e-014
lhumerus 16.076 -29.0065 95.7165
lradius 124.034
lwrist 8.40729
lhand -15.0854 9.52222
lfingers 7.12502
lthumb 11.0824 39.2096
rfemur -33.3808 4.07826 2.07509
rtibia 42.4837
rfoot -4.72272 7.03218
rtoes -19.2939
lfemur -3.22712 13.3231 -16.7513
ltibia 46.5456
lfoot -34.5486 6.51696
ltoes -19.9013
